<svg id="Layer_1" data-name="Layer 1" xmlns="http://www.w3.org/2000/svg" viewBox="0 0 100 100"><defs><style>.cls-1{fill:#28285e;}</style></defs><title>Social-Icons-RS</title><path class="cls-1" d="M50.08,78.67c-6.82,0-13.64,0-20.47,0-6,0-8.33-2.36-8.34-8.34q0-20.31,0-40.63c0-6,2.32-8.33,8.33-8.35q20.48-.06,40.94,0c5.79,0,8.17,2.43,8.19,8.19q0,20.46,0,40.93c0,5.77-2.39,8.15-8.18,8.2C63.73,78.72,56.9,78.67,50.08,78.67ZM28.09,46c0,8-.08,15.82.12,23.63,0,.77,1.66,2.13,2.57,2.14q19.22.21,38.45,0c.9,0,2.54-1.38,2.56-2.15C72,61.79,71.91,54,71.91,46H67.26c1.39,8-1.2,14.16-7.53,18.53-5.86,4-12.23,4.32-18.4.65-7.21-4.29-9.88-10.9-8.76-19.24Zm22-6.8a10.83,10.83,0,1,0-.42,21.65,10.83,10.83,0,1,0,.42-21.65Zm16.43-11c-5.52,0-5.52,0-5.52,4.92,0,5.86,0,5.88,5.25,5.88,5.64,0,5.64,0,5.65-5.16C71.94,28.15,71.94,28.15,66.56,28.14Z"/></svg>