<svg id="Layer_1" data-name="Layer 1" xmlns="http://www.w3.org/2000/svg" viewBox="0 0 100 100"><defs><style>.cls-1{fill:#28285e;}</style></defs><title>Social-Icons-RS</title><path class="cls-1" d="M49,40.85a43.67,43.67,0,0,1,1.09-6.72c2.21-6.73,10.6-10.26,16.39-6.5,3.27,2.13,5.92,2.26,9.06.53a7.15,7.15,0,0,1,1.37-.47c.06,0,.16.09.62.36l-3.84,5.41,4.86-1.05c-.11.36-.1.7-.26.83-4,3.16-4.66,7.56-5.62,12.34C67.24,72.6,41,79.26,23.48,69.91c-.49-.26-.94-.61-2-1.33,6.3-.08,11.67-1.2,16.75-5.06-5.24-.78-8.73-3.22-10.73-8.11L31.92,55c-5.52-2.36-8.32-6-8.89-11.74l4.49,1c-4.23-5-5.52-9.91-2.62-16C31.41,36,39.3,40.21,49,40.85Z"/></svg>