<svg id="Layer_1" data-name="Layer 1" xmlns="http://www.w3.org/2000/svg" viewBox="0 0 100 100"><defs><style>.cls-1{fill:#28285e;}</style></defs><title>Social-Icons-RS</title><path class="cls-1" d="M70.13,29c6.69.25,9.9,2.66,10.27,8.69a236.14,236.14,0,0,1,0,25.52C80.15,68,77.43,70.43,72.62,71a93.71,93.71,0,0,1-12.42.65c-10.82-.13-21.63-.41-32.44-.75-4.06-.13-6.36-2.58-7.11-6.48a74.25,74.25,0,0,1,0-28.65c.73-3.72,2.95-6.15,6.86-6.38,7.63-.46,15.27-.75,22.9-1.1C50.45,28.52,63.58,28.73,70.13,29ZM44,41.14V58l16.35-8.29Z"/></svg>